<svg xmlns="http://www.w3.org/2000/svg" xmlns:xlink="http://www.w3.org/1999/xlink" width="1920" zoomAndPan="magnify" viewBox="0 0 1440 1439.999935" height="1920" preserveAspectRatio="xMidYMid meet" version="1.0"><path fill="#ffffff" d="M 737.960938 145.203125 C 626.183594 141.484375 513.253906 171.980469 415.753906 237.058594 C 306.246094 310.234375 229.71875 418.289062 194.46875 539.085938 C 184.734375 537.898438 173.078125 538.421875 159.234375 542.335938 C 107.558594 557 68.691406 599.34375 51.214844 636.636719 C 28.546875 685.238281 18.988281 749.5 29.070312 815.875 C 39.085938 882.023438 67.03125 936.546875 101.984375 970.398438 C 137.039062 1004.269531 176.625 1015.277344 215.945312 1007.011719 C 274.492188 994.515625 303.519531 985.167969 295.324219 930.625 L 255.632812 666.226562 C 263.636719 523.128906 337.71875 388.421875 461.628906 305.585938 C 627.476562 194.800781 844.917969 201.898438 1003.113281 323.339844 C 1113.160156 407.714844 1177.054688 534.140625 1184.429688 666.855469 L 1156.675781 851.804688 C 1094.777344 1021.203125 941.316406 1138.539062 763.738281 1155.195312 L 645.496094 1155.195312 C 614.980469 1155.195312 590.410156 1179.765625 590.410156 1210.246094 L 590.410156 1239.289062 C 590.410156 1269.785156 614.980469 1294.359375 645.496094 1294.359375 L 794.585938 1294.359375 C 825.082031 1294.359375 849.546875 1269.785156 849.546875 1239.289062 L 849.546875 1224.101562 C 983.453125 1191.421875 1100.332031 1109.125 1176.441406 994.359375 L 1224.203125 1007.03125 C 1263.070312 1017.113281 1303.128906 1004.269531 1338.167969 970.417969 C 1373.121094 936.546875 1401.046875 882.039062 1411.078125 815.890625 C 1421.199219 749.535156 1411.359375 685.363281 1388.953125 636.65625 C 1366.460938 587.949219 1332.960938 557.015625 1294.285156 545.917969 C 1278.085938 541.253906 1260.503906 539.539062 1245.421875 539.085938 C 1213.542969 429.859375 1147.921875 330.523438 1053.339844 257.996094 C 960.332031 186.640625 849.742188 148.859375 737.960938 145.203125 Z M 737.960938 145.203125 " fill-opacity="1" fill-rule="evenodd"/><path fill="#ffffff" d="M 912.464844 620.875 C 951.871094 620.875 983.820312 652.820312 983.90625 692.335938 C 983.820312 731.742188 951.871094 763.777344 912.464844 763.777344 C 872.949219 763.777344 840.914062 731.742188 840.914062 692.335938 C 840.914062 652.820312 872.949219 620.875 912.464844 620.875 Z M 720.050781 620.875 C 759.546875 620.875 791.492188 652.820312 791.492188 692.335938 C 791.492188 731.742188 759.546875 763.777344 720.050781 763.777344 C 680.519531 763.777344 648.570312 731.742188 648.570312 692.335938 C 648.570312 652.820312 680.519531 620.875 720.050781 620.875 Z M 527.707031 620.875 C 567.113281 620.875 599.148438 652.820312 599.148438 692.335938 C 599.148438 731.742188 567.113281 763.777344 527.707031 763.777344 C 488.207031 763.777344 456.246094 731.742188 456.246094 692.335938 C 456.246094 652.820312 488.207031 620.875 527.707031 620.875 Z M 720.050781 313.957031 C 510.507812 313.957031 341.652344 477.253906 341.652344 692.335938 C 341.652344 795.636719 380.710938 886.933594 444.34375 953.917969 L 421.765625 1055.140625 C 414.320312 1088.453125 437.421875 1110.855469 467.359375 1094.183594 L 566.207031 1039.046875 C 613.183594 1059.441406 665.136719 1070.714844 720.050781 1070.714844 C 929.660156 1070.714844 1098.410156 907.519531 1098.410156 692.335938 C 1098.410156 477.253906 929.660156 313.957031 720.050781 313.957031 Z M 720.050781 313.957031 " fill-opacity="1" fill-rule="evenodd"/></svg>