<svg xmlns="http://www.w3.org/2000/svg" xmlns:xlink="http://www.w3.org/1999/xlink" width="1080" zoomAndPan="magnify" viewBox="0 0 810 809.999993" height="1080" preserveAspectRatio="xMidYMid meet" version="1.2"><defs><clipPath id="17ee5ec9b8"><path d="M 164 440 L 646 440 L 646 805.554688 L 164 805.554688 Z M 164 440 "/></clipPath><clipPath id="56c8bd6aca"><path d="M 0 4.554688 L 810 4.554688 L 810 489 L 0 489 Z M 0 4.554688 "/></clipPath><clipPath id="dc74201705"><path d="M 257 598 L 366 598 L 366 805.554688 L 257 805.554688 Z M 257 598 "/></clipPath></defs><g id="8d5a7dc831"><g clip-rule="nonzero" clip-path="url(#17ee5ec9b8)"><path style=" stroke:none;fill-rule:evenodd;fill:#e64c3c;fill-opacity:1;" d="M 296.679688 440.082031 L 350.839844 479.394531 L 405.023438 518.726562 L 536.828125 805.832031 L 564.363281 708.523438 L 645.171875 727.164062 L 513.320312 440.082031 L 459.160156 479.394531 L 405.023438 518.726562 L 273.171875 805.832031 L 245.585938 708.523438 L 164.828125 727.191406 Z M 296.679688 440.082031 "/></g><path style=" stroke:none;fill-rule:evenodd;fill:#cf4436;fill-opacity:1;" d="M 570.445312 564.441406 C 566.8125 565.847656 563.054688 566.960938 559.246094 567.753906 C 554.773438 588.816406 541.597656 606.988281 522.984375 617.765625 C 504.347656 628.546875 482.023438 630.917969 461.558594 624.292969 L 461.457031 624.292969 L 461.457031 624.34375 C 459.703125 626.222656 457.898438 628.074219 456.019531 629.78125 L 405.023438 518.726562 L 350.839844 479.394531 L 296.679688 440.082031 L 239.503906 564.515625 C 243.136719 565.875 246.871094 566.960938 250.679688 567.800781 L 250.703125 567.800781 L 250.703125 567.851562 C 255.226562 588.890625 268.425781 607.035156 287.039062 617.792969 C 305.679688 628.546875 327.976562 630.894531 348.441406 624.292969 L 348.542969 624.292969 L 348.542969 624.316406 C 350.273438 626.246094 352.101562 628.050781 354.027344 629.78125 L 405.023438 518.726562 L 459.160156 479.394531 L 513.320312 440.082031 Z M 570.445312 564.441406 "/><path style=" stroke:none;fill-rule:evenodd;fill:#ffd23b;fill-opacity:1;" d="M 367.996094 220.171875 C 377.460938 209.714844 390.910156 203.757812 405 203.757812 C 419.089844 203.757812 432.539062 209.714844 442.003906 220.171875 C 448.851562 227.960938 459.726562 230.902344 469.566406 227.589844 C 482.988281 223.238281 497.648438 224.773438 509.859375 231.84375 C 522.09375 238.890625 530.746094 250.804688 533.6875 264.625 C 535.738281 274.785156 543.675781 282.722656 553.859375 284.773438 C 567.652344 287.714844 579.566406 296.371094 586.613281 308.609375 C 593.683594 320.820312 595.214844 335.480469 590.863281 348.90625 C 587.550781 358.71875 590.46875 369.574219 598.253906 376.445312 C 608.710938 385.890625 614.691406 399.339844 614.691406 413.457031 C 614.691406 427.574219 608.710938 441.023438 598.253906 450.492188 C 590.46875 457.363281 587.578125 468.21875 590.863281 478.058594 C 596.300781 494.871094 592.46875 513.289062 580.753906 526.515625 C 569.035156 539.742188 551.214844 545.773438 533.886719 542.386719 C 537.273438 559.71875 531.242188 577.542969 518.015625 589.261719 C 504.792969 600.980469 486.375 604.835938 469.566406 599.371094 C 459.726562 596.085938 448.875 598.976562 442.003906 606.765625 C 432.5625 617.246094 419.113281 623.230469 405 623.230469 C 390.886719 623.230469 377.4375 617.246094 367.996094 606.765625 C 361.125 598.976562 350.273438 596.085938 340.433594 599.371094 C 327.011719 603.722656 312.351562 602.191406 300.140625 595.144531 C 287.90625 588.074219 279.253906 576.15625 276.285156 562.363281 C 274.261719 552.203125 266.300781 544.242188 256.140625 542.214844 C 242.347656 539.246094 230.433594 530.59375 223.386719 518.378906 C 216.316406 506.144531 214.785156 491.480469 219.136719 478.058594 C 222.421875 468.21875 219.53125 457.363281 211.746094 450.492188 C 201.289062 441.023438 195.308594 427.574219 195.308594 413.457031 C 195.308594 399.339844 201.289062 385.890625 211.746094 376.445312 C 219.53125 369.574219 222.421875 358.746094 219.136719 348.90625 C 214.785156 335.480469 216.316406 320.820312 223.386719 308.609375 C 230.433594 296.371094 242.347656 287.714844 256.140625 284.773438 C 266.300781 282.722656 274.261719 274.785156 276.285156 264.625 C 279.253906 250.804688 287.90625 238.890625 300.140625 231.84375 C 312.351562 224.773438 327.011719 223.238281 340.433594 227.589844 C 350.273438 230.902344 361.148438 227.960938 367.996094 220.171875 Z M 367.996094 220.171875 "/><path style=" stroke:none;fill-rule:evenodd;fill:#fea832;fill-opacity:1;" d="M 404.976562 542.214844 C 476.042969 542.214844 533.6875 484.609375 533.6875 413.507812 C 533.714844 342.429688 476.09375 284.773438 405.023438 284.773438 C 333.933594 284.75 276.3125 342.378906 276.3125 413.457031 C 276.433594 484.484375 333.957031 542.039062 404.976562 542.214844 Z M 404.976562 542.214844 "/><path style=" stroke:none;fill-rule:nonzero;fill:#ffd23b;fill-opacity:1;" d="M 345.128906 431.355469 C 340.78125 426.90625 340.804688 419.761719 345.203125 415.335938 C 349.628906 410.933594 356.773438 410.886719 361.222656 415.261719 L 381.195312 435.1875 L 448.777344 367.621094 C 453.226562 363.269531 460.371094 363.292969 464.796875 367.71875 C 469.195312 372.121094 469.21875 379.265625 464.871094 383.714844 L 389.253906 459.34375 C 387.128906 461.492188 384.210938 462.703125 381.195312 462.703125 C 378.15625 462.703125 375.261719 461.492188 373.113281 459.34375 Z M 345.128906 431.355469 "/><g clip-rule="nonzero" clip-path="url(#56c8bd6aca)"><path style=" stroke:none;fill-rule:evenodd;fill:#e5972d;fill-opacity:1;" d="M 810 409.972656 L 752.875 428.414062 L 753.023438 488.390625 L 717.847656 439.785156 L 660.820312 458.429688 L 696.167969 409.972656 L 660.820312 361.488281 L 717.847656 380.128906 L 753.023438 331.527344 L 752.875 391.550781 Z M 0 409.972656 L 57.125 391.550781 L 56.976562 331.527344 L 92.152344 380.128906 L 149.179688 361.488281 L 113.832031 409.972656 L 149.179688 458.429688 L 92.152344 439.785156 L 56.976562 488.390625 L 57.125 428.414062 Z M 118.628906 123.582031 L 172.019531 150.898438 L 214.390625 108.402344 L 204.898438 167.636719 L 258.367188 194.757812 L 199.113281 204.03125 L 189.84375 263.339844 L 162.703125 209.789062 L 103.449219 219.285156 L 145.96875 176.957031 Z M 404.976562 4.9375 L 423.414062 62.023438 L 483.382812 61.921875 L 434.8125 97.101562 L 453.472656 154.089844 L 404.976562 118.761719 L 356.527344 154.089844 L 375.1875 97.101562 L 326.589844 61.921875 L 386.585938 61.996094 Z M 691.371094 123.582031 L 664.03125 176.957031 L 706.550781 219.308594 L 647.296875 209.816406 L 620.132812 263.339844 L 610.886719 204.054688 L 551.632812 194.785156 L 605.101562 167.664062 L 595.609375 108.402344 L 637.980469 150.898438 Z M 691.371094 123.582031 "/></g><path style=" stroke:none;fill-rule:evenodd;fill:#e6bd35;fill-opacity:1;" d="M 389.773438 206.105469 C 398.128906 208.800781 405.617188 213.671875 411.527344 220.171875 C 418.375 227.984375 429.25 230.902344 439.085938 227.589844 C 442.152344 226.578125 445.339844 225.886719 448.554688 225.515625 C 446.109375 224.078125 443.882812 222.273438 442.003906 220.171875 C 432.539062 209.691406 419.089844 203.734375 404.976562 203.757812 C 399.808594 203.757812 394.691406 204.550781 389.773438 206.105469 Z M 439.085938 599.371094 C 429.25 596.085938 418.398438 598.976562 411.527344 606.765625 C 405.644531 613.292969 398.128906 618.164062 389.773438 620.882812 C 394.691406 622.4375 399.808594 623.230469 404.976562 623.230469 C 419.089844 623.253906 432.5625 617.273438 442.003906 606.765625 C 442.796875 605.949219 443.5625 605.207031 444.351562 604.464844 C 445.664062 603.328125 447.046875 602.339844 448.53125 601.472656 C 446.503906 601.226562 444.476562 600.855469 442.5 600.363281 C 441.363281 600.089844 440.199219 599.769531 439.085938 599.398438 Z M 479.332031 231.84375 C 491.589844 238.863281 500.269531 250.804688 503.183594 264.625 C 505.238281 274.785156 513.195312 282.722656 523.378906 284.773438 C 537.171875 287.742188 549.0625 296.394531 556.109375 308.632812 C 563.179688 320.84375 564.710938 335.480469 560.386719 348.90625 C 557.074219 358.746094 559.964844 369.597656 567.777344 376.445312 C 578.257812 385.890625 584.214844 399.339844 584.214844 413.457031 C 584.214844 427.574219 578.257812 441.023438 567.777344 450.492188 C 559.988281 457.363281 557.074219 468.21875 560.386719 478.058594 C 564.761719 491.507812 563.203125 506.144531 556.109375 518.355469 C 554.921875 520.457031 553.5625 522.484375 552.054688 524.363281 C 540.460938 539 521.675781 545.945312 503.359375 542.386719 C 508.179688 567.183594 493.71875 591.660156 469.714844 599.421875 C 486.5 604.8125 504.890625 600.929688 518.066406 589.238281 C 531.242188 577.519531 537.246094 559.71875 533.886719 542.386719 C 554.796875 546.464844 575.984375 536.824219 586.636719 518.378906 C 593.683594 506.144531 595.238281 491.507812 590.863281 478.082031 C 587.578125 468.242188 590.46875 457.390625 598.253906 450.492188 C 608.710938 441.046875 614.691406 427.597656 614.691406 413.480469 C 614.691406 399.363281 608.710938 385.914062 598.253906 376.445312 C 590.46875 369.597656 587.578125 358.746094 590.863281 348.90625 C 595.214844 335.480469 593.683594 320.84375 586.613281 308.609375 C 579.566406 296.394531 567.652344 287.714844 553.859375 284.773438 C 543.699219 282.722656 535.738281 274.785156 533.714844 264.625 C 530.769531 250.855469 522.121094 238.9375 509.933594 231.890625 C 497.746094 224.820312 483.136719 223.238281 469.714844 227.566406 C 473.050781 228.628906 476.289062 230.085938 479.355469 231.84375 Z M 479.332031 231.84375 "/><path style=" stroke:none;fill-rule:evenodd;fill:#e5972d;fill-opacity:1;" d="M 308.621094 413.457031 C 308.644531 348.632812 356.847656 293.921875 421.167969 285.789062 C 415.800781 285.121094 410.390625 284.773438 404.976562 284.75 C 335.960938 284.75 279.226562 339.214844 276.386719 408.191406 C 273.566406 477.144531 325.625 536.082031 394.421875 541.742188 C 397.929688 542.066406 401.414062 542.1875 404.976562 542.1875 C 408.585938 542.1875 412.070312 542.066406 415.578125 541.742188 C 417.457031 541.59375 419.3125 541.421875 421.167969 541.175781 C 419.039062 540.902344 416.964844 540.582031 414.886719 540.210938 C 408.882812 539.171875 402.949219 537.6875 397.140625 535.785156 C 344.3125 518.40625 308.621094 469.058594 308.621094 413.457031 Z M 308.621094 413.457031 "/><g clip-rule="nonzero" clip-path="url(#dc74201705)"><path style=" stroke:none;fill-rule:evenodd;fill:#cf4436;fill-opacity:1;" d="M 326.589844 601.769531 L 257.820312 751.589844 L 273.171875 805.832031 L 365.648438 604.464844 C 358.75 598.382812 349.132812 596.457031 340.433594 599.371094 C 335.960938 600.832031 331.3125 601.621094 326.589844 601.769531 Z M 326.589844 601.769531 "/></g><path style=" stroke:none;fill-rule:evenodd;fill:#cf4436;fill-opacity:1;" d="M 531.984375 568.394531 L 600.132812 716.78125 L 645.171875 727.164062 L 559.519531 540.632812 C 551.265625 543.425781 542.4375 544.042969 533.886719 542.386719 C 535.589844 551.0625 534.925781 560.039062 532.007812 568.394531 Z M 531.984375 568.394531 "/><path style=" stroke:none;fill-rule:evenodd;fill:#fea832;fill-opacity:1;" d="M 788.640625 409.972656 L 731.542969 428.414062 L 731.617188 458.847656 L 717.847656 439.785156 L 700.59375 445.421875 L 696.488281 439.785156 L 667.492188 449.28125 L 696.167969 409.972656 L 667.492188 370.6875 L 696.488281 380.128906 L 700.59375 374.492188 L 717.847656 380.128906 L 731.617188 361.117188 L 731.542969 391.550781 Z M 0 409.972656 L 57.125 391.550781 L 57.027344 361.117188 L 70.820312 380.128906 L 88.050781 374.492188 L 92.152344 380.128906 L 121.171875 370.6875 L 92.476562 409.972656 L 121.171875 449.304688 L 92.152344 439.8125 L 88.050781 445.421875 L 70.820312 439.8125 L 57.027344 458.847656 L 57.125 428.414062 Z M 157.90625 143.65625 L 172.019531 150.898438 L 188.929688 133.941406 L 183.539062 167.636719 L 237.007812 194.757812 L 177.757812 204.03125 L 173.527344 231.125 L 162.703125 209.789062 L 142.976562 212.980469 L 141.34375 209.789062 L 107.554688 215.230469 L 145.96875 176.957031 L 126.242188 138.367188 L 150.664062 150.898438 Z M 423.414062 61.949219 L 423.414062 61.996094 L 462.003906 61.949219 L 413.453125 97.101562 L 425.441406 133.667969 L 404.976562 118.761719 L 394.320312 126.523438 L 383.640625 118.761719 L 363.199219 133.667969 L 375.1875 97.101562 L 326.640625 61.972656 L 365.226562 61.996094 L 365.226562 61.972656 L 386.585938 61.996094 L 394.347656 37.992188 L 402.082031 61.996094 Z M 681.089844 215.230469 L 647.296875 209.789062 L 645.691406 212.980469 L 625.941406 209.789062 L 615.113281 231.152344 L 610.886719 204.03125 L 551.632812 194.757812 L 605.101562 167.636719 L 599.714844 133.941406 L 616.644531 150.898438 L 630.761719 143.65625 L 638.003906 150.898438 L 662.425781 138.367188 L 642.699219 176.957031 Z M 681.089844 215.230469 "/></g></svg>